<svg width="427" height="427" viewBox="0 0 427 427" fill="none" xmlns="http://www.w3.org/2000/svg">
<g style="mix-blend-mode:darken" clip-path="url(#clip0_1_24)">
<path d="M427 0H0V427H427V0Z" fill="white"/>
<path opacity="0.2" d="M103.064 96.7522C103.064 96.7522 168.737 22.0187 244.997 58.2898C321.258 94.5609 256.185 127.53 269.736 126.57C283.286 125.61 350.526 72.0255 378.468 155.307C406.41 238.588 388.683 284.353 332.893 290.889C277.104 297.426 356.367 323.598 323.531 346.628C290.696 369.659 167.029 398.008 138.164 359.764C109.298 321.519 138.39 273.578 138.39 273.578C138.39 273.578 102.301 335.131 71.268 302.005C40.2354 268.879 40.1935 184.057 71.6122 170.743C103.031 157.429 126.048 141.792 110.651 142.903C95.2534 144.016 81.9464 120.178 103.064 96.7522Z" fill="#6A8185"/>
<path d="M186.141 195.407C186.141 195.407 161.631 193.668 153.86 167.103C146.089 140.538 118.855 117.921 114.47 108.16C110.086 98.3987 144.561 96.063 163.902 113.4C183.244 130.737 198.362 175.478 186.141 195.407Z" fill="#3E2D4A"/>
<path d="M182.83 193.071C181.874 192.073 180.899 188.678 179.425 183.537C175.494 169.841 168.176 144.346 149.868 126.834C137.066 114.59 129.184 109.529 124.826 107.44C120.097 105.174 118.386 105.817 118.37 105.824L118.202 105.431C118.478 105.311 125.313 102.758 150.163 126.526C168.555 144.118 175.892 169.685 179.834 183.42C181.24 188.316 182.255 191.854 183.139 192.777L182.83 193.071Z" fill="#FEFADA"/>
<path d="M145.607 122.69C145.282 122.69 144.922 122.408 144.656 122.17C140.498 118.449 123.774 118.794 123.607 118.8L123.597 118.373C124.292 118.358 140.659 118.019 144.94 121.852C145.382 122.248 145.598 122.289 145.646 122.252C146.538 121.647 143.152 112.405 141.524 107.964C140.547 105.3 139.993 103.772 139.945 103.36L140.369 103.311C140.413 103.694 141.113 105.605 141.925 107.818C145.251 116.895 146.867 121.94 145.886 122.605C145.799 122.664 145.704 122.69 145.607 122.69Z" fill="#FEFADA"/>
<path d="M161.25 141.253C160.966 141.253 160.631 141.135 160.239 140.896C155.046 137.751 141.071 139.727 140.93 139.748L140.87 139.325C141.45 139.241 155.138 137.306 160.46 140.531C160.945 140.825 161.293 140.898 161.497 140.75C162.469 140.042 161.278 135.001 160.017 129.664C158.592 123.633 156.976 116.798 157.296 112.186L157.722 112.215C157.408 116.763 159.015 123.564 160.432 129.565C162.041 136.371 162.895 140.262 161.748 141.095C161.603 141.201 161.438 141.253 161.25 141.253Z" fill="#FEFADA"/>
<path d="M172.568 163.378C172.171 163.378 171.855 162.911 171.645 162.544C168.533 157.095 150.149 152.897 149.964 152.855L150.058 152.439C150.822 152.612 168.811 156.722 172.015 162.332C172.381 162.972 172.568 162.953 172.588 162.948C173.399 162.757 173.727 156.928 174.043 151.291C174.467 143.763 174.993 134.394 176.827 129.261L177.23 129.405C175.416 134.48 174.891 143.815 174.47 151.316C174.034 159.06 173.757 163.112 172.686 163.365C172.646 163.373 172.607 163.378 172.568 163.378Z" fill="#FEFADA"/>
<path d="M178.704 184.205C176.663 184.205 172.5 181.652 167.772 178.751C163.388 176.062 158.856 173.282 155.818 172.453L155.931 172.041C159.027 172.885 163.586 175.682 167.995 178.388C172.832 181.355 177.834 184.421 179.232 183.673C179.468 183.546 179.589 183.295 179.603 182.905C179.778 177.953 187.391 160.404 187.714 159.66L188.105 159.83C188.027 160.012 180.202 178.049 180.03 182.921C180.01 183.468 179.81 183.847 179.433 184.05C179.234 184.155 178.99 184.205 178.704 184.205Z" fill="#FEFADA"/>
<path d="M195.067 231.67C195.067 231.67 217.679 222.055 216.39 194.406C215.1 166.757 233.499 136.514 234.471 125.857C235.443 115.201 202.081 124.203 189.429 146.887C176.777 169.571 177.03 216.797 195.067 231.67Z" fill="#CA9661"/>
<path d="M197.439 228.384L197.051 228.205C197.587 227.045 197.397 223.37 197.133 218.283C196.394 204.012 195.019 177.448 206.691 154.833C222.475 124.248 229.746 124.465 230.056 124.491L230.026 124.917C229.968 124.924 222.645 124.85 207.071 155.029C195.452 177.541 196.823 204.03 197.56 218.261C197.836 223.6 198.019 227.128 197.439 228.384Z" fill="#FEFADA"/>
<path d="M209.588 149.751C209.546 149.751 209.503 149.746 209.46 149.734C208.315 149.424 208.203 144.128 208.396 134.463C208.443 132.105 208.484 130.069 208.402 129.694L208.818 129.602C208.908 130.008 208.88 131.634 208.823 134.472C208.729 139.2 208.531 149.04 209.571 149.322C209.63 149.334 209.819 149.231 210.108 148.714C212.912 143.697 228.498 138.695 229.16 138.484L229.29 138.891C229.129 138.942 213.202 144.052 210.48 148.923C210.278 149.288 209.971 149.751 209.588 149.751Z" fill="#FEFADA"/>
<path d="M200.712 172.414C200.632 172.414 200.552 172.402 200.474 172.378C199.119 171.962 198.661 168.005 197.968 161.046C197.358 154.91 196.666 147.956 194.89 143.757L195.283 143.592C197.084 147.85 197.78 154.838 198.394 161.005C198.937 166.463 199.45 171.617 200.599 171.97C200.84 172.042 201.146 171.86 201.508 171.425C205.492 166.645 219.066 164.024 219.641 163.915L219.721 164.334C219.581 164.361 205.722 167.036 201.836 171.699C201.436 172.178 201.066 172.414 200.712 172.414Z" fill="#FEFADA"/>
<path d="M197.323 196.995C196.231 196.995 194.655 193.258 191.767 186.178C188.929 179.222 185.397 170.565 182.031 166.356L182.365 166.089C185.769 170.347 189.314 179.035 192.162 186.017C194.278 191.205 196.467 196.568 197.309 196.568C197.316 196.568 197.322 196.568 197.328 196.567C197.348 196.565 197.531 196.526 197.669 195.797C198.875 189.45 214.55 179.713 215.216 179.302L215.44 179.665C215.28 179.765 199.26 189.714 198.089 195.878C198.002 196.334 197.833 196.946 197.37 196.992C197.355 196.994 197.339 196.995 197.323 196.995Z" fill="#FEFADA"/>
<path d="M197.903 218.761C197.839 218.761 197.778 218.756 197.718 218.745C197.296 218.677 196.984 218.383 196.787 217.872C195.04 213.322 181.775 198.81 181.642 198.663L181.957 198.375C182.505 198.973 195.41 213.094 197.186 217.719C197.326 218.083 197.522 218.281 197.787 218.324C199.34 218.57 203.084 214.052 206.694 209.673C209.984 205.682 213.386 201.554 216.039 199.748L216.279 200.101C213.676 201.873 210.294 205.975 207.023 209.944C203.132 214.663 199.756 218.761 197.903 218.761Z" fill="#FEFADA"/>
<path d="M130.304 315.321C130.304 315.321 110.665 300.554 87.3719 315.508C64.079 330.461 28.6884 329.665 18.975 334.157C9.26248 338.648 33.7509 363.027 59.7219 362.629C85.6938 362.23 126.453 338.379 130.304 315.321Z" fill="#CA9661"/>
<path d="M47.4568 343.976C22.8658 343.976 20.1177 338.905 20.0015 338.662L20.3858 338.475C20.4191 338.539 24.052 344.903 57.943 343.281C83.2479 342.074 105.495 327.632 117.446 319.873C121.932 316.961 124.896 315.037 126.272 314.911L126.312 315.336C125.039 315.452 121.952 317.457 117.679 320.23C105.694 328.011 83.3837 342.494 57.9635 343.707C54.0795 343.894 50.591 343.976 47.4568 343.976Z" fill="#FEFADA"/>
<path d="M35.3419 354.806L35.0533 354.491C35.3599 354.211 36.7809 353.421 39.2669 352.05C43.4088 349.766 52.0265 345.013 51.7507 343.972C51.7345 343.913 51.5534 343.811 50.9548 343.811C50.9334 343.811 50.9112 343.812 50.889 343.812C45.116 343.812 33.0746 332.901 32.563 332.435L32.8508 332.12C32.9746 332.232 45.2808 343.385 50.8882 343.385C50.936 343.385 50.9812 343.383 51.0308 343.383C51.4851 343.383 52.053 343.445 52.164 343.863C52.4681 345.009 47.9384 347.757 39.4744 352.425C37.4086 353.563 35.6255 354.546 35.3419 354.806Z" fill="#FEFADA"/>
<path d="M54.2802 359.467L53.9395 359.209C56.7252 355.518 62.4274 351.419 67.4592 347.803C71.9119 344.602 76.1187 341.579 75.8489 340.407C75.7925 340.162 75.4808 339.989 74.9223 339.892C68.7905 338.835 59.7279 328.395 59.3453 327.951L59.669 327.673C59.7612 327.781 69.0134 338.44 74.9949 339.472C75.7489 339.602 76.1648 339.877 76.2648 340.31C76.5833 341.691 73.3859 344.068 67.7085 348.149C62.7007 351.749 57.0258 355.828 54.2802 359.467Z" fill="#FEFADA"/>
<path d="M80.2794 359.292L79.8815 359.137C81.8644 354.059 87.6127 346.641 92.232 340.682C95.6907 336.219 99.2673 331.605 98.7813 330.929C98.7694 330.912 98.6447 330.773 97.9436 331.018C91.8409 333.149 75.5705 324.453 74.8804 324.081L75.0828 323.706C75.2502 323.795 91.8802 332.686 97.8026 330.615C98.2416 330.464 98.8556 330.302 99.1281 330.68C99.7703 331.572 97.321 334.813 92.5693 340.944C87.968 346.882 82.2402 354.272 80.2794 359.292Z" fill="#FEFADA"/>
<path d="M108.446 343.463L108.039 343.334C108.283 342.56 114.049 324.321 117.165 320.469C117.41 320.165 117.484 319.896 117.388 319.645C116.826 318.163 111.039 317.198 105.442 316.264C100.339 315.413 95.063 314.533 92.1722 313.14L92.3575 312.755C95.1937 314.123 100.439 314.997 105.512 315.843C111.75 316.884 117.138 317.783 117.788 319.493C117.939 319.893 117.842 320.311 117.498 320.737C114.433 324.526 108.506 343.273 108.446 343.463Z" fill="#FEFADA"/>
<path d="M253.579 330.374C253.579 330.374 232.592 317.596 210.871 334.751C189.149 351.906 153.849 354.569 144.621 359.987C135.394 365.406 162.145 387.277 187.953 384.346C213.762 381.415 251.998 353.699 253.579 330.374Z" fill="#6E6C7B"/>
<path d="M161.655 367.652C148.282 367.652 146.194 364.556 146.082 364.372L146.447 364.15L146.265 364.261L146.446 364.148C146.485 364.209 150.722 370.18 184.292 365.265C209.358 361.594 230.089 345.049 241.227 336.161C245.407 332.825 248.168 330.621 249.527 330.361L249.607 330.78C248.352 331.02 245.475 333.316 241.493 336.494C230.325 345.408 209.535 361.999 184.355 365.687C174.479 367.134 167.122 367.652 161.655 367.652Z" fill="#FEFADA"/>
<path d="M162.925 378.941L162.608 378.656C162.885 378.347 164.222 377.423 166.562 375.816C170.46 373.138 178.574 367.566 178.197 366.556C178.176 366.499 177.98 366.408 177.389 366.473C171.687 367.123 158.532 357.363 157.975 356.947L158.231 356.606C158.366 356.706 171.807 366.656 177.342 366.05C177.803 365.997 178.436 365.978 178.597 366.408C179.011 367.519 174.772 370.696 166.802 376.169C164.86 377.502 163.182 378.655 162.925 378.941Z" fill="#FEFADA"/>
<path d="M182.227 381.731L181.863 381.507C184.274 377.563 189.55 372.926 194.205 368.836C198.324 365.215 202.214 361.795 201.832 360.655C201.752 360.418 201.424 360.276 200.86 360.234C194.654 359.781 184.616 350.275 184.192 349.87L184.486 349.562C184.59 349.659 194.838 359.366 200.891 359.809C201.655 359.864 202.095 360.097 202.237 360.52C202.687 361.863 199.739 364.54 194.487 369.156C189.854 373.227 184.606 377.841 182.227 381.731Z" fill="#FEFADA"/>
<path d="M208.086 379.018L207.676 378.903C209.153 373.655 214.151 365.713 218.165 359.33C221.172 354.551 224.281 349.61 223.732 348.985C223.717 348.969 223.581 348.844 222.907 349.155C217.045 351.877 199.999 344.804 199.277 344.503L199.441 344.109C199.616 344.182 217.035 351.405 222.727 348.768C223.148 348.573 223.743 348.354 224.052 348.704C224.779 349.529 222.657 352.992 218.527 359.558C214.526 365.918 209.548 373.831 208.086 379.018Z" fill="#FEFADA"/>
<path d="M234.574 360.514L234.156 360.426C234.323 359.631 238.281 340.917 241.007 336.779C241.222 336.453 241.268 336.178 241.148 335.938C240.444 334.518 234.589 334.122 228.927 333.739C223.766 333.391 218.43 333.029 215.417 331.925L215.564 331.525C218.52 332.607 223.825 332.966 228.956 333.313C235.268 333.74 240.717 334.109 241.532 335.749C241.722 336.132 241.665 336.557 241.364 337.015C238.682 341.085 234.614 360.321 234.574 360.514Z" fill="#FEFADA"/>
<path d="M302.457 330.374C302.457 330.374 323.444 317.596 345.165 334.751C366.887 351.906 402.187 354.569 411.415 359.987C420.642 365.406 393.891 387.277 368.083 384.346C342.274 381.415 304.038 353.699 302.457 330.374Z" fill="#3E2D4A"/>
<path d="M394.382 367.652C388.914 367.652 381.56 367.135 371.682 365.687C346.501 361.999 325.711 345.407 314.542 336.493C310.561 333.315 307.684 331.02 306.43 330.78L306.51 330.361C307.869 330.621 310.629 332.824 314.809 336.16C325.946 345.048 346.677 361.594 371.745 365.265C405.316 370.181 409.553 364.21 409.591 364.148L409.955 364.372C409.842 364.556 407.752 367.652 394.382 367.652Z" fill="#FEFADA"/>
<path d="M393.112 378.941C392.854 378.655 391.177 377.503 389.236 376.17C381.265 370.696 377.024 367.518 377.439 366.407C377.6 365.977 378.23 365.996 378.695 366.049C384.241 366.656 397.67 356.706 397.805 356.605L398.061 356.946C397.505 357.362 384.344 367.126 378.647 366.472C378.064 366.407 377.862 366.497 377.84 366.556C377.465 367.565 385.579 373.139 389.48 375.817C391.816 377.423 393.153 378.346 393.43 378.655L393.112 378.941Z" fill="#FEFADA"/>
<path d="M373.809 381.731C371.431 377.841 366.182 373.227 361.55 369.156C356.298 364.54 353.349 361.863 353.8 360.52C353.942 360.097 354.383 359.864 355.145 359.809C361.2 359.366 371.447 349.659 371.55 349.562L371.845 349.87C371.421 350.275 361.383 359.78 355.177 360.234C354.612 360.276 354.284 360.418 354.204 360.655C353.822 361.795 357.712 365.216 361.832 368.836C366.486 372.926 371.762 377.563 374.173 381.507L373.809 381.731Z" fill="#FEFADA"/>
<path d="M347.95 379.018C346.489 373.831 341.51 365.916 337.508 359.557C333.379 352.992 331.258 349.529 331.984 348.704C332.293 348.354 332.887 348.573 333.309 348.768C339.004 351.409 356.42 344.182 356.595 344.109L356.76 344.503C356.037 344.805 338.994 351.876 333.129 349.155C332.455 348.843 332.319 348.968 332.304 348.985C331.754 349.61 334.864 354.552 337.871 359.33C341.886 365.713 346.884 373.655 348.36 378.903L347.95 379.018Z" fill="#FEFADA"/>
<path d="M321.463 360.514C321.423 360.32 317.353 341.085 314.673 337.014C314.372 336.556 314.316 336.131 314.506 335.748C315.32 334.108 320.77 333.739 327.081 333.312C332.212 332.965 337.517 332.607 340.473 331.524L340.62 331.924C337.607 333.028 332.271 333.39 327.111 333.738C321.449 334.121 315.595 334.517 314.889 335.937C314.77 336.177 314.816 336.453 315.031 336.778C317.755 340.917 321.715 359.631 321.882 360.425L321.463 360.514Z" fill="#FEFADA"/>
<path d="M288.297 172.369C288.297 172.369 312.399 177.145 326.891 153.563C341.382 129.981 373.61 115.333 380.41 107.07C387.21 98.8078 354.566 87.4769 331.343 99.1101C308.119 110.743 281.754 149.925 288.297 172.369Z" fill="#6A8185"/>
<path d="M292.106 170.987L291.886 170.621C292.982 169.963 294.893 166.818 297.537 162.464C304.957 150.252 318.767 127.519 341.141 115.391C371.377 99.0017 377.294 103.267 377.529 103.455L377.264 103.791C377.249 103.78 375.77 102.707 370.61 103.649C365.856 104.518 356.919 107.324 341.344 115.766C319.071 127.839 305.3 150.507 297.902 162.685C295.126 167.257 293.293 170.276 292.106 170.987Z" fill="#FEFADA"/>
<path d="M368.796 114.93C368.635 114.881 352.595 110.144 347.602 112.638C347.187 112.847 346.599 113.083 346.301 112.734C345.53 111.833 348.417 107.392 354.015 99.5115C355.381 97.59 356.56 95.9298 356.702 95.572L357.099 95.7309C356.945 96.1169 356.007 97.4448 354.363 99.7592C351.623 103.615 345.924 111.638 346.624 112.456C346.663 112.502 346.877 112.523 347.411 112.257C352.547 109.686 368.251 114.321 368.918 114.52L368.796 114.93Z" fill="#FEFADA"/>
<path d="M346.567 130.577C346.437 130.52 333.476 124.934 327.637 126.601C326.899 126.813 326.407 126.744 326.129 126.396C325.242 125.29 327.091 121.762 330.434 115.62C333.382 110.204 336.723 104.066 337.617 99.5952L338.035 99.6789C337.128 104.213 333.771 110.381 330.808 115.824C328.187 120.641 325.71 125.19 326.461 126.129C326.618 126.325 326.974 126.346 327.519 126.19C333.501 124.482 346.198 129.951 346.736 130.185L346.567 130.577Z" fill="#FEFADA"/>
<path d="M309.963 145.061C309.877 145.061 309.794 145.043 309.713 144.998C308.747 144.473 309.547 140.49 311.165 132.905C312.733 125.558 314.684 116.414 314.272 111.041L314.697 111.008C315.116 116.443 313.157 125.62 311.584 132.993C310.405 138.515 309.186 144.225 309.917 144.623C309.937 144.633 310.107 144.707 310.634 144.179C315.202 139.61 333.639 140.379 334.421 140.416L334.403 140.843C334.21 140.835 315.373 140.044 310.936 144.481C310.672 144.744 310.308 145.061 309.963 145.061Z" fill="#FEFADA"/>
<path d="M299.495 163.638C298.694 163.638 298.099 163.498 297.759 163.176C297.45 162.883 297.355 162.463 297.481 161.93C298.599 157.185 295.798 137.725 295.77 137.528L296.192 137.468C296.309 138.271 299.032 157.205 297.897 162.029C297.808 162.409 297.858 162.683 298.054 162.867C299.203 163.956 304.836 162.316 310.285 160.727C315.25 159.279 320.385 157.781 323.594 157.781V158.208C320.446 158.208 315.341 159.697 310.404 161.137C305.885 162.455 301.824 163.638 299.495 163.638Z" fill="#FEFADA"/>
<path d="M104.097 269.809C104.097 269.809 79.5296 270.188 69.4994 244.389C59.4691 218.591 30.3896 198.404 25.181 189.056C19.9725 179.708 54.1188 174.413 74.8804 190.021C95.642 205.629 114.556 248.902 104.097 269.809Z" fill="#6A8185"/>
<path d="M100.597 267.767C99.5585 266.854 98.2954 263.555 96.3824 258.563C91.2866 245.255 81.8021 220.484 62.0542 204.614C48.2459 193.516 39.9569 189.153 35.435 187.447C30.5279 185.596 28.8806 186.386 28.8643 186.393L28.6637 186.017C28.931 185.873 35.5136 182.736 62.3223 204.281C82.1599 220.224 91.6718 245.065 96.7821 258.41C98.6037 263.166 99.9197 266.603 100.879 267.446L100.597 267.767Z" fill="#FEFADA"/>
<path d="M57.4025 200.853C57.0899 200.853 56.7321 200.618 56.4605 200.414C51.9958 197.065 35.3667 198.85 35.1993 198.869L35.1523 198.445C35.8432 198.369 52.1205 196.622 56.7158 200.073C57.1907 200.43 57.4076 200.452 57.4537 200.411C58.2898 199.732 54.1205 190.818 52.1171 186.533C50.9146 183.962 50.2297 182.487 50.1469 182.08L50.5653 181.994C50.6413 182.372 51.5047 184.216 52.5039 186.352C56.598 195.108 58.6433 199.995 57.7227 200.742C57.6271 200.821 57.5186 200.853 57.4025 200.853Z" fill="#FEFADA"/>
<path d="M54.2632 218.249L54.1658 217.834C54.7363 217.7 68.2073 214.596 73.7873 217.348C74.2954 217.598 74.6473 217.642 74.8386 217.478C75.7464 216.689 74.1255 211.769 72.409 206.56C70.4695 200.675 68.2722 194.004 68.1928 189.381L68.6198 189.374C68.6975 193.931 70.8846 200.57 72.8146 206.426C75.0025 213.068 76.1879 216.871 75.1178 217.8C74.7805 218.092 74.2835 218.07 73.5969 217.732C68.156 215.045 54.4015 218.217 54.2632 218.249Z" fill="#FEFADA"/>
<path d="M87.7724 239.069C87.3941 239.069 87.0568 238.649 86.8245 238.315C83.2547 233.154 64.5786 230.554 64.3899 230.529L64.4471 230.105C65.2234 230.211 83.499 232.758 87.1746 238.071C87.5965 238.682 87.7801 238.641 87.7989 238.637C88.5897 238.376 88.4146 232.541 88.2447 226.897C88.0184 219.361 87.7365 209.981 89.1217 204.709L89.5342 204.817C88.1644 210.03 88.4454 219.375 88.6708 226.884C88.9031 234.637 88.9765 238.698 87.9313 239.041C87.8792 239.061 87.8254 239.069 87.7724 239.069Z" fill="#FEFADA"/>
<path d="M95.4823 259.298C93.3584 259.298 89.1345 257.184 84.3615 254.796C79.7636 252.494 75.0077 250.115 71.9111 249.55L71.9879 249.13C75.1452 249.705 79.9276 252.099 84.5528 254.414C89.6273 256.954 94.8743 259.583 96.2022 258.712C96.4269 258.566 96.5259 258.304 96.5063 257.915C96.2543 252.967 102.327 234.827 102.586 234.057L102.991 234.193C102.927 234.381 96.6848 253.025 96.9324 257.893C96.9606 258.44 96.7932 258.835 96.4354 259.069C96.1963 259.226 95.8752 259.298 95.4823 259.298Z" fill="#FEFADA"/>
<path d="M308.793 308.155C308.793 308.155 332.895 312.931 347.387 289.349C361.878 265.767 394.107 251.119 400.906 242.856C407.706 234.594 375.062 223.263 351.839 234.896C328.615 246.529 302.25 285.711 308.793 308.155Z" fill="#3E2D4A"/>
<path d="M312.602 306.774L312.382 306.407C313.478 305.749 315.389 302.605 318.033 298.251C325.453 286.037 339.263 263.304 361.637 251.177C391.875 234.786 397.788 239.052 398.025 239.241L397.76 239.577C397.745 239.565 396.264 238.493 391.106 239.435C386.352 240.304 377.415 243.11 361.84 251.552C339.567 263.625 325.796 286.294 318.398 298.471C315.622 303.043 313.789 306.062 312.602 306.774Z" fill="#FEFADA"/>
<path d="M389.292 250.715C389.131 250.668 373.091 245.929 368.098 248.424C367.684 248.631 367.095 248.868 366.797 248.519C366.025 247.618 368.913 243.177 374.513 235.295C375.878 233.374 377.056 231.716 377.199 231.359L377.596 231.518C377.442 231.903 376.505 233.231 374.862 235.543C372.122 239.4 366.421 247.424 367.122 248.242C367.162 248.288 367.375 248.309 367.909 248.043C373.049 245.47 388.748 250.108 389.415 250.307L389.292 250.715Z" fill="#FEFADA"/>
<path d="M367.063 266.363C366.933 266.306 353.974 260.724 348.133 262.387C347.397 262.599 346.903 262.53 346.625 262.183C345.738 261.076 347.587 257.548 350.93 251.407C353.878 245.99 357.219 239.852 358.113 235.381L358.531 235.465C357.624 240 354.267 246.168 351.304 251.611C348.682 256.428 346.206 260.977 346.957 261.916C347.114 262.111 347.471 262.131 348.015 261.976C353.997 260.265 366.694 265.737 367.232 265.971L367.063 266.363Z" fill="#FEFADA"/>
<path d="M330.459 280.847C330.373 280.847 330.29 280.829 330.209 280.784C329.243 280.259 330.043 276.276 331.661 268.691C333.229 261.343 335.18 252.2 334.768 246.827L335.193 246.793C335.612 252.228 333.653 261.405 332.08 268.779C330.901 274.301 329.682 280.01 330.414 280.408C330.432 280.419 330.607 280.488 331.13 279.964C335.698 275.395 354.136 276.165 354.917 276.201L354.899 276.628C354.706 276.617 335.869 275.829 331.432 280.267C331.168 280.53 330.804 280.847 330.459 280.847Z" fill="#FEFADA"/>
<path d="M319.991 299.424C319.19 299.424 318.595 299.284 318.255 298.962C317.946 298.668 317.851 298.248 317.977 297.716C319.094 292.971 316.294 273.511 316.266 273.315L316.688 273.254C316.805 274.057 319.528 292.991 318.393 297.815C318.304 298.194 318.354 298.469 318.55 298.652C319.701 299.743 325.334 298.101 330.781 296.512C335.747 295.065 340.881 293.567 344.09 293.567V293.994C340.942 293.994 335.837 295.482 330.901 296.922C326.382 298.241 322.321 299.424 319.991 299.424Z" fill="#FEFADA"/>
<path d="M140.782 215.066C140.782 215.066 137.361 174.535 162.702 170.356C184.214 166.808 201.36 176.409 209.796 198.124C218.232 219.838 146.376 221.624 140.782 215.066Z" fill="#6A8185"/>
<path d="M88.1021 148.217C88.1021 148.217 95.9273 163.558 103.12 162.421C110.312 161.285 113.299 151.376 124.924 155.466C136.549 159.555 147.174 183.96 158.362 187.423C169.551 190.886 151.08 216.575 151.08 216.575C151.08 216.575 61.1473 222.236 57.487 215.638C53.8268 209.04 81.779 175.767 84.505 173.705C90.7947 168.948 81.7833 160.761 81.7833 160.761L88.1021 148.217Z" fill="#E7BD9F"/>
<path d="M88.0841 137.71C88.0841 137.71 97.7548 157.219 87.3616 161.134C80.2128 163.828 72.3005 152.744 72.2313 146.32C72.1621 139.896 82.2248 134.666 88.0841 137.71Z" fill="#E7BD9F"/>
<path d="M80.0975 151.881C80.447 151.749 80.5923 151.276 80.4221 150.825C80.2519 150.374 79.8306 150.116 79.4811 150.248C79.1316 150.38 78.9863 150.852 79.1565 151.303C79.3267 151.754 79.748 152.013 80.0975 151.881Z" fill="#34263B"/>
<path d="M86.7099 149.385C87.0594 149.253 87.2047 148.781 87.0345 148.33C86.8643 147.879 86.443 147.62 86.0935 147.752C85.744 147.884 85.5987 148.357 85.7689 148.808C85.9391 149.259 86.3604 149.517 86.7099 149.385Z" fill="#34263B"/>
<path d="M90.8835 147.804C90.8835 147.804 90.764 143.9 92.8614 144.834C94.9588 145.768 94.8145 150.564 93.3354 151.096C91.8579 151.627 90.7187 149.476 90.8835 147.804Z" fill="#E7BD9F"/>
<path d="M84.6681 145.354C84.6681 145.354 85.9833 144.31 87.5521 145.732C88.4667 146.562 83.1625 146.435 84.6681 145.354Z" fill="#A0444E"/>
<path d="M79.0206 147.331C79.0206 147.331 77.3519 147.146 76.778 149.184C76.4441 150.372 80.8695 147.446 79.0206 147.331Z" fill="#A0444E"/>
<path d="M75.9531 153.593C75.9531 153.593 73.479 150.57 72.5106 152.653C71.5421 154.736 74.8019 158.256 76.2656 157.686C77.7302 157.116 77.1768 154.747 75.9531 153.593Z" fill="#E7BD9F"/>
<path d="M72.7138 141.182C72.7138 141.182 76.3988 148.88 74.403 152.846C74.403 152.846 62.9125 149.741 72.7138 141.182Z" fill="#A0444E"/>
<path d="M84.8347 154.483C84.2693 154.483 83.1036 154.039 82.5143 153.267L82.8534 153.008C83.3692 153.683 84.3769 154.022 84.7672 154.056C84.6442 153.48 83.8099 151.443 82.9909 149.618L83.3803 149.443C84.6997 152.385 85.3069 154.024 85.1839 154.315L85.0413 154.454C84.9884 154.473 84.9183 154.483 84.8347 154.483Z" fill="#C87D79"/>
<path d="M84.8107 156.987C83.3068 156.987 81.7372 155.835 81.6561 155.776L81.9106 155.433C81.9336 155.45 84.1651 157.086 85.6468 156.387C86.4701 155.998 86.9304 154.94 87.0141 153.243L87.4402 153.263C87.348 155.131 86.8057 156.312 85.8279 156.773C85.5059 156.925 85.16 156.987 84.8107 156.987Z" fill="#C87D79"/>
<path d="M75.8694 156.373C74.8898 153.972 73.7753 154.076 73.7651 154.073L73.7045 153.65C73.76 153.64 75.1435 153.466 76.2656 156.212L75.8694 156.373Z" fill="#C87D79"/>
<path d="M92.495 150.087C91.5215 147.283 92.6752 146.504 92.7256 146.472L92.9587 146.829C92.9493 146.835 92.0475 147.495 92.899 149.946L92.495 150.087Z" fill="#C87D79"/>
<path d="M73.7361 169.388C73.7361 169.388 73.5277 165.858 70.677 163.39C67.8264 160.922 64.7468 157.233 66.5052 158.07C68.2636 158.908 70.4866 160.298 70.4866 160.298C70.4866 160.298 67.2977 157.21 67.7973 156.785C68.2969 156.36 72.6233 158.428 72.6233 158.428C72.6233 158.428 68.7922 156.238 70.3294 155.508C71.8658 154.778 82.2035 163.715 80.4895 166.913C78.3903 170.826 78.4903 171.023 73.7361 169.388Z" fill="#E7BD9F"/>
<path d="M145.112 213.263C145.112 213.263 148.438 190.354 154.831 187.423C161.224 184.493 223.754 204.174 231.746 204.973C239.737 205.771 244.965 213.003 244.381 214.396C243.796 215.789 234.019 216.283 229.951 217.083C225.884 217.882 144.583 228.447 145.112 213.263Z" fill="#6A8185"/>
<path d="M151.02 188.307C151.02 188.307 147.862 178.655 153.191 174.067C172.013 157.865 223.243 192.738 232.098 200.863C238.017 206.293 250.569 212.064 249.738 213.327C248.907 214.589 236.893 208.043 232.747 208.081C228.603 208.118 147.709 203.135 151.02 188.307Z" fill="#6A8185"/>
<path d="M71.8761 164.677C71.8761 164.677 79.6517 164.088 80.8029 164.622C81.955 165.157 83.265 214.29 78.1171 217.083C72.9692 219.875 59.9021 220.426 55.3998 217.31C50.8975 214.193 68.4754 162.776 71.8761 164.677Z" fill="#C87D79"/>
<path d="M86.1806 171.804C86.1806 171.804 101.284 182.803 103.12 162.421C103.12 162.421 114.299 152.909 122.801 152.845C136.451 152.742 140.292 172.787 153.191 174.067C158.451 174.588 151.439 218.912 151.439 218.912C151.439 218.912 71.8188 220.642 67.747 219.481C63.6751 218.321 66.1842 189.557 68.9161 185.619C71.648 181.683 83.815 171.031 86.1806 171.804Z" fill="#C87D79"/>
<path d="M81.7833 160.76C81.7833 160.76 86.418 166.679 89.9125 166.147C93.4071 165.615 93.7384 156.773 93.7384 156.773L92.1756 154.758C92.1756 154.758 92.1756 165.019 81.7833 160.76Z" fill="#C87D79"/>
<path d="M70.057 138.762C70.057 138.762 71.525 134.824 77.1427 132.467C82.7603 130.111 90.4352 126.482 90.8673 128.19C91.2994 129.898 89.5282 133.775 89.5282 133.775C89.5282 133.775 93.8025 130.653 93.4353 132.993C93.068 135.334 91.7247 140.65 83.3615 143.135C74.9983 145.619 66.3011 145.465 70.057 138.762Z" fill="#A0444E"/>
<path d="M85.6929 136.707C85.6929 136.707 88.7016 146.93 91.2243 146.271C91.2243 146.271 92.4634 141.083 90.8673 138.224C89.2712 135.365 85.6929 136.707 85.6929 136.707Z" fill="#A0444E"/>
<path d="M77.5637 213.508L77.3374 213.145C81.8533 210.333 81.4844 175.704 81.4801 175.354L81.9071 175.349C81.9251 176.786 82.282 210.57 77.5637 213.508Z" fill="#A34D5B"/>
<path d="M95.6155 176.665C90.0552 176.665 84.4683 173.925 84.4102 173.896L84.6007 173.513C84.6587 173.542 90.5676 176.437 96.2031 176.227C101.495 176.032 104.015 166.935 104.54 163.446L104.962 163.509C104.745 164.951 104.021 168.145 102.685 170.967C100.943 174.646 98.7677 176.559 96.2185 176.654C96.0178 176.662 95.8162 176.665 95.6155 176.665Z" fill="#A34D5B"/>
<path d="M98.0007 184.804C98.0007 184.804 98.4004 173.614 110.679 167.306C117.838 163.629 119.276 171.185 119.706 172.296C120.136 173.407 101.223 187.587 98.5003 187.304C95.7778 187.019 70.8956 189.158 70.3696 188.877C69.8444 188.596 68.0783 184.44 70.7522 182.434C73.426 180.427 92.9784 178.073 98.0007 184.804Z" fill="#FEFADA"/>
<path d="M77.2033 215.866C77.2033 215.866 66.4865 186.926 69.1953 185.865C72.8786 184.421 94.127 184.515 98.0008 184.804C98.0008 184.804 113.542 167.436 118.411 168.523C123.282 169.61 133.719 201.71 131.719 201.848C129.719 201.986 117.215 211.983 107.172 216.362C107.172 216.362 79.9523 217.086 77.2033 215.866Z" fill="#6A8185"/>
<path d="M124.046 203.639C124.046 203.639 118.405 200.516 114.64 200.334C110.874 200.152 106.098 200.695 107.95 201.303C109.801 201.911 112.368 202.44 112.368 202.44C112.368 202.44 107.93 202.471 107.998 203.125C108.065 203.777 112.624 205.267 112.624 205.267C112.624 205.267 108.34 204.208 108.948 205.797C109.556 207.386 117.502 207.811 120.585 211.008C123.667 214.205 128.614 205.738 124.046 203.639Z" fill="#E7BD9F"/>
<path d="M121.02 172.263C115.126 165.621 119.462 156.567 119.506 156.477L119.89 156.665C119.846 156.753 115.638 165.555 121.34 171.979L121.02 172.263Z" fill="#A34D5B"/>
<path d="M116.717 196.938C116.717 196.938 113.311 207.929 116.717 211.72C120.123 215.512 148.754 205.905 151.787 197.448C154.821 188.992 150.233 181.496 145.109 181.539C139.985 181.582 131.865 192.524 116.717 196.938Z" fill="#C87D79"/>
<path d="M125.734 214.111C124.102 214.111 122.458 213.93 120.818 213.534L120.918 213.119C130.331 215.394 139.972 210.424 145.856 205.014C149.985 201.217 152.404 197.143 152.016 194.637C151.045 188.353 142.65 171.78 142.566 171.613L142.946 171.419C143.293 172.102 151.457 188.22 152.438 194.571C152.847 197.214 150.377 201.436 146.145 205.327C141.202 209.873 133.633 214.111 125.734 214.111Z" fill="#A34D5B"/>
<path d="M129.594 190.953L129.287 190.656C130.08 189.835 137.609 183.824 140.562 182.705L140.713 183.104C137.807 184.206 130.378 190.141 129.594 190.953Z" fill="#A34D5B"/>
<path d="M73.7745 183.99L73.6968 183.571C74.3424 183.451 89.5752 180.683 95.7095 183.588L95.5267 183.974C89.5137 181.127 73.9308 183.96 73.7745 183.99Z" fill="#FEFADA"/>
<path d="M103.683 185.809C103.683 185.809 118.935 176.869 119.713 175.374C119.986 174.849 122.801 183.781 122.801 183.781C122.801 183.781 108.402 191.794 107.537 191.911C106.672 192.028 104.11 187.491 103.683 185.809Z" fill="#FEFADA"/>
<path d="M122.61 211.816C119.744 206.114 120.617 195.92 120.656 195.489L121.081 195.528C121.072 195.632 120.18 206.031 122.991 211.624L122.61 211.816Z" fill="#A34D5B"/>
<path d="M81.2308 171.405C78.182 170.231 69.4088 170.565 69.3192 170.569L69.3021 170.142C69.665 170.127 78.2537 169.802 81.3836 171.006L81.2308 171.405Z" fill="#A34D5B"/>
<path d="M70.6736 160.4L70.2987 160.195C70.3226 160.151 70.8999 159.116 72.5217 158.239L72.7241 158.615C71.2227 159.426 70.6796 160.391 70.6736 160.4Z" fill="#C87D79"/>
<path d="M197.342 179.118C188.647 174.968 173.697 172.801 163.114 176.962L162.958 176.565C173.651 172.36 188.749 174.544 197.526 178.734L197.342 179.118Z" fill="#515562"/>
<path d="M229.771 198.894C229.771 198.894 227.558 209.419 230.108 210.235C232.658 211.052 245.131 207.554 248.554 209.294C251.977 211.035 254.414 214.04 254.05 209.761C253.685 205.483 249.242 201.537 244.845 200.307C240.448 199.079 229.771 198.894 229.771 198.894Z" fill="#44324E"/>
<path d="M229.792 209.498C229.792 209.498 228.868 215.759 231.418 216.575C233.968 217.392 243.252 214.835 246.674 216.575C250.097 218.316 256.212 221.47 255.847 217.191C255.483 212.912 251.04 208.967 246.643 207.737C242.246 206.507 229.792 209.498 229.792 209.498Z" fill="#44324E"/>
<path d="M158.766 177.603C158.766 177.603 148.307 206.957 148.876 218.913C149.096 223.541 167.535 221.959 173.619 221.656C179.703 221.353 161.023 182.549 158.766 177.603Z" fill="#6A8185"/>
<path d="M153.303 199.059C152.022 197.999 153.105 193.245 154.061 189.05C154.448 187.348 154.815 185.741 154.925 184.744C155.293 181.413 158.468 177.624 158.604 177.465L158.93 177.74C158.898 177.778 155.703 181.589 155.35 184.79C155.238 185.811 154.886 187.355 154.478 189.144C153.642 192.813 152.498 197.837 153.577 198.728L153.303 199.059Z" fill="#515562"/>
<path d="M72.4047 143.036L72.1937 142.665C72.4106 142.541 77.5346 139.648 79.843 139.648C84.7748 139.648 87.6016 137.911 88.2447 134.485L88.664 134.563C87.9782 138.221 85.0106 140.075 79.843 140.075C77.6457 140.075 72.4568 143.007 72.4047 143.036Z" fill="#863A42"/>
<path d="M71.0596 141.536L70.6916 141.319C70.8068 141.124 73.555 136.535 77.2964 135.528C78.7935 135.124 79.9848 135.245 80.9438 135.342C82.423 135.49 83.3154 135.581 84.2821 133.85L84.6553 134.058C83.5528 136.034 82.382 135.915 80.9011 135.766C79.9293 135.668 78.8285 135.557 77.4083 135.94C73.8351 136.902 71.087 141.49 71.0596 141.536Z" fill="#863A42"/>
<path d="M72.5217 151.098C72.4627 150.909 71.0818 146.446 71.8214 144.894L72.2066 145.078C71.5387 146.48 72.9154 150.927 72.929 150.971L72.5217 151.098Z" fill="#863A42"/>
<path d="M90.4505 144.458C89.9766 142.086 88.8988 141.174 88.8877 141.165L89.1576 140.835C89.2063 140.874 90.3617 141.837 90.869 144.375L90.4505 144.458Z" fill="#863A42"/>
<path d="M237.381 209.241C237.221 208.678 236.015 206.547 235.401 205.499L235.77 205.283C235.843 205.408 237.576 208.369 237.792 209.124L237.381 209.241Z" fill="#FEFADA"/>
<path d="M241.167 209.424L240.745 209.363C240.942 207.982 239.316 205.319 239.3 205.292L239.664 205.068C239.735 205.182 241.387 207.89 241.167 209.424Z" fill="#FEFADA"/>
<path d="M238.434 216.93C238.274 216.368 237.068 214.236 236.454 213.187L236.823 212.971C236.896 213.097 238.629 216.058 238.845 216.813L238.434 216.93Z" fill="#FEFADA"/>
<path d="M242.221 217.112L241.799 217.052C241.996 215.671 240.37 213.007 240.354 212.98L240.718 212.756C240.788 212.871 242.441 215.58 242.221 217.112Z" fill="#FEFADA"/>
<path d="M229.787 209.712C229.401 209.703 190.998 208.816 173.587 206.107C158.59 203.774 155.129 200.586 154.989 200.451L155.285 200.143C155.319 200.175 158.841 203.381 173.652 205.685C191.036 208.39 229.411 209.276 229.797 209.285L229.787 209.712Z" fill="#515562"/>
<path d="M97.4909 184.882C89.4471 181.874 72.4969 183.876 72.327 183.897L72.2757 183.473C72.4474 183.453 89.5018 181.439 97.6404 184.481L97.4909 184.882Z" fill="#D3D0B1"/>
<path d="M99.8292 181.624L99.4286 181.476C102.2 174.014 112.024 168.606 112.123 168.552L112.327 168.927C112.23 168.981 102.545 174.314 99.8292 181.624Z" fill="#D3D0B1"/>
<path d="M107.162 216.575C106.914 216.575 106.57 216.316 101.278 201.488C98.6396 194.095 96.0383 186.606 96.0118 186.532L96.4158 186.391C100.445 197.995 106.667 215.508 107.292 216.194L107.17 216.305L107.175 216.575C107.171 216.575 107.167 216.575 107.162 216.575Z" fill="#515562"/>
<path d="M111.597 215.141C110.332 211.554 100.383 184.247 100.283 183.971L100.684 183.825C100.785 184.1 110.734 211.409 112 214.998L111.597 215.141Z" fill="#515562"/>
<path d="M50.3356 271.144C50.3356 271.144 196.878 272.575 203.039 271.144C209.201 269.713 223.776 268.878 225.535 271.799C227.294 274.721 233.404 322.207 224.603 325.07C215.802 327.933 47.6959 326.025 44.1749 326.025C40.6538 326.025 42.8546 277.348 44.6147 274.962C46.3756 272.575 44.6155 272.098 50.3356 271.144Z" fill="#68818D"/>
<path d="M88.5239 284.41C88.5239 284.41 88.1738 307.296 90.6256 310.672C93.0775 314.049 196.061 313.673 199.564 312.924C203.068 312.173 200.966 283.66 200.966 283.66C200.966 283.66 88.1729 280.659 88.5239 284.41Z" fill="#493558"/>
<path d="M56.5023 271.033L55.6483 326.945C55.6483 326.945 62.9073 327.385 64.1883 327.385C65.4693 327.385 65.0423 270.154 65.0423 270.154L56.5023 271.033Z" fill="#493558"/>
<path d="M72.3014 271.007L71.4474 325.236C71.4474 325.236 78.7064 325.663 79.9874 325.663C81.2684 325.663 80.8414 270.153 80.8414 270.153L72.3014 271.007Z" fill="#493558"/>
<path d="M50.3356 218.157C50.3356 218.157 196.724 218.215 203.039 218.157C213.638 218.059 224.689 219.495 226.448 222.329C228.208 225.162 233.404 267.684 224.603 270.461C215.802 273.238 47.6959 271.387 44.1749 271.387C40.6538 271.387 42.8546 224.174 44.6147 221.86C46.3756 219.545 44.6155 219.083 50.3356 218.157Z" fill="#493558"/>
<path d="M43.2653 227.88C43.2653 227.88 198.693 228.307 200.401 231.296C202.109 234.285 204.244 261.613 196.558 264.175C188.872 266.737 45.4003 267.591 41.5573 265.029C37.7143 262.467 37.7143 228.734 43.2653 227.88Z" fill="#FEFADA"/>
<path d="M147.57 237.509C138.703 237.509 130.163 237.203 123.034 236.947C116.966 236.729 112.173 236.558 109.028 236.633C91.7204 237.055 43.7504 237.483 43.2679 237.487L43.2636 237.06C43.7462 237.056 91.7136 236.628 109.019 236.206C112.175 236.129 116.975 236.301 123.05 236.52C131.845 236.836 142.789 237.23 153.84 237.028C177.13 236.602 199.971 236.206 199.971 236.206L199.979 236.633C199.979 236.633 177.138 237.029 153.847 237.455C151.746 237.493 149.649 237.509 147.57 237.509Z" fill="#D3D0B1"/>
<path d="M99.3552 246.318C78.059 246.318 41.6154 245.61 41.1261 245.6L41.1346 245.173C41.7879 245.187 106.534 246.444 113.696 245.602C117.175 245.193 135.608 244.505 155.121 243.777C175.855 243.003 197.294 242.203 199.506 241.761L199.589 242.18C197.344 242.628 175.888 243.429 155.138 244.203C135.632 244.931 117.208 245.618 113.746 246.025C111.94 246.238 106.498 246.318 99.3552 246.318Z" fill="#D3D0B1"/>
<path d="M82.9516 252.809C62.7306 252.809 41.0262 252.437 40.6999 252.432L40.7076 252.005C41.1978 252.015 90.0312 252.849 109.442 252.005C126.234 251.276 199.069 248.561 200.47 249.027L200.335 249.433C198.804 249.042 131.406 251.479 109.461 252.433C102.952 252.715 93.139 252.809 82.9516 252.809Z" fill="#D3D0B1"/>
<path d="M82.7552 259.966C63.0679 259.966 43.6044 259.696 43.2628 259.691L43.2688 259.264C43.8708 259.274 103.652 260.104 119.682 258.838C125.769 258.357 137.743 258.175 150.42 257.982C171.7 257.658 195.819 257.291 200.32 255.437L200.482 255.833C195.906 257.717 171.745 258.085 150.426 258.409C137.756 258.603 125.788 258.784 119.715 259.264C112.787 259.811 97.7061 259.966 82.7552 259.966Z" fill="#D3D0B1"/>
<path d="M165.814 257.77C165.814 257.77 150.442 237.701 152.15 236.847C153.858 235.993 181.186 233.431 180.759 235.993C180.332 238.555 167.522 257.77 165.814 257.77Z" fill="#6A8185"/>
<path d="M142.756 272.288C142.756 272.288 127.384 252.219 129.092 251.365C130.8 250.511 158.128 247.949 157.701 250.511C157.274 253.073 144.464 272.288 142.756 272.288Z" fill="#CA9661"/>
<path d="M85.1114 227.453C85.1114 227.453 90.2354 279.547 90.2354 282.536C90.2354 285.525 96.2134 268.872 96.2134 268.872C96.2134 268.872 101.354 282.61 102.939 281.964C104.522 281.319 107.315 229.588 104.753 227.88C102.191 226.172 85.1114 227.453 85.1114 227.453Z" fill="#B94D59"/>
<path d="M377.884 153.981C377.884 153.981 397.757 302.011 399.925 308.322C402.092 314.633 403.077 339.241 388.238 339.705C384.776 339.814 355.767 351.906 351.658 329.491C349.901 319.91 325.661 157.248 325.236 153.549C324.81 149.849 368.958 144.677 371.541 146.254C374.125 147.83 376.243 148.078 377.884 153.981Z" fill="#CA9661"/>
<path d="M346.253 298.213C346.253 298.213 392.395 289.096 395.78 290.544C399.166 291.993 400.853 312.706 401.773 320.944C402.693 329.183 397.422 339.797 383.528 341.754C369.634 343.709 352.528 346.074 350.359 326.726C348.738 312.262 346.253 298.213 346.253 298.213Z" fill="#C37E59"/>
<path d="M333.493 152.559C333.493 152.559 357.992 328.071 361.843 331.096C365.695 334.121 390.69 329.778 391.134 326.16C392.039 318.792 367.799 150.132 365.084 147.159C362.369 144.186 331.477 146.768 333.493 152.559Z" fill="#FEFADA"/>
<path d="M368.832 332.955C364.63 327.575 337.985 156.7 336.852 149.43L337.274 149.364C337.551 151.144 365.033 327.4 369.168 332.692L368.832 332.955Z" fill="#D3D0B1"/>
<path d="M379.417 328.129C379.205 326.503 358.227 165.334 354.661 146.797L355.08 146.716C358.65 165.266 379.629 326.448 379.84 328.074L379.417 328.129Z" fill="#D3D0B1"/>
<path d="M386.42 330.641L385.994 330.622C386.427 321.101 365.089 148.922 364.874 147.183L365.297 147.131C365.512 148.87 386.855 321.085 386.42 330.641Z" fill="#D3D0B1"/>
<path d="M376.509 330.267C376.197 328.591 345.312 162.52 346.048 146.354L346.475 146.374C345.741 162.491 376.617 328.513 376.928 330.189L376.509 330.267Z" fill="#D3D0B1"/>
<path d="M330.867 159.531C330.867 159.531 331.775 308.887 333.123 315.422C334.472 321.957 332.322 346.492 317.545 345.067C314.097 344.735 283.787 353.044 282.558 330.29C282.033 320.563 278.653 156.139 278.7 152.415C278.748 148.691 323.195 149.169 325.558 151.061C327.92 152.955 329.991 153.468 330.867 159.531Z" fill="#6E6C7B"/>
<path d="M281.171 298.576C281.171 298.576 328.097 295.395 331.271 297.262C334.444 299.129 332.308 318.878 332.174 327.167C332.04 335.456 326.642 346.325 312.613 346.5C298.583 346.675 281.508 346.756 283.145 327.356C284.385 312.668 281.171 298.576 281.171 298.576Z" fill="#57495B"/>
<path d="M287.017 152.483C287.017 152.483 289.022 329.684 292.458 333.174C295.895 336.663 321.238 335.531 322.139 331.998C323.973 324.805 321.354 154.432 319.04 151.138C316.724 147.845 285.753 146.482 287.017 152.483Z" fill="#FEFADA"/>
<path d="M299.154 335.906C295.669 330.036 290.947 157.161 290.747 149.805L291.174 149.793C291.223 151.594 296.093 329.914 299.521 335.688L299.154 335.906Z" fill="#D3D0B1"/>
<path d="M310.266 332.464C310.262 330.824 309.929 168.296 308.746 149.455L309.172 149.429C310.356 168.282 310.689 330.823 310.693 332.462L310.266 332.464Z" fill="#D3D0B1"/>
<path d="M316.893 335.846L316.473 335.772C318.112 326.384 318.819 152.889 318.826 151.138L319.253 151.139C319.246 152.891 318.539 326.422 316.893 335.846Z" fill="#D3D0B1"/>
<path d="M307.109 334.215C307.013 332.513 297.475 163.866 300.259 147.923L300.679 147.997C297.904 163.891 307.439 332.49 307.536 334.191L307.109 334.215Z" fill="#D3D0B1"/>
<path d="M279.997 155.771C279.997 155.771 281.297 310.794 282.932 317.286C284.566 323.778 285.731 339.18 282.671 341.09C279.61 343.001 229.421 350.278 226.219 341.018C223.016 331.757 221.807 153.919 221.739 150.196C221.672 146.472 273.281 147.964 275.842 149.786C278.404 151.607 278.875 149.737 279.997 155.771Z" fill="#493558"/>
<path d="M221.63 161.695C221.63 161.695 273.508 161.695 277.73 161.695C277.73 161.695 278.333 169.206 277.73 169.206C277.127 169.206 224.344 169.832 222.534 169.414C220.726 168.997 221.63 161.695 221.63 161.695Z" fill="#B94D59"/>
<path d="M221.63 175.092C221.63 175.092 273.508 175.092 277.73 175.092C277.73 175.092 278.333 182.603 277.73 182.603C277.127 182.603 224.344 183.229 222.534 182.812C220.726 182.395 221.63 175.092 221.63 175.092Z" fill="#B94D59"/>
<path d="M237.93 197.34C237.93 197.34 264.164 197.34 266.299 197.34C266.299 197.34 267.177 300.897 266.872 300.897C266.568 300.897 239.303 304.118 238.387 298.642C237.473 293.166 237.93 197.34 237.93 197.34Z" fill="#B94D59"/>
<path d="M206.618 99.1597C206.618 99.1597 210.844 107.508 221.422 114.553C231.999 121.599 244.382 106.856 244.382 106.856C244.382 106.856 211.127 95.9358 206.618 99.1597Z" fill="#E7BD9F"/>
<path d="M279.355 57.6296C279.355 57.6296 276.712 67.5728 277.763 70.9546C278.815 74.3364 291.268 75.2528 295.344 80.229C299.419 85.2053 287.894 130.343 287.822 133.479C287.749 136.614 243.767 130.922 238.333 128.296C232.899 125.671 247.674 80.0693 252.919 75.9932C258.162 71.9179 263.304 75.7233 265.852 70.9537C268.399 66.1842 267.306 60.9765 267.306 60.9765L279.355 57.6296Z" fill="#E7BD9F"/>
<path d="M286.01 47.2612C286.01 47.2612 281.191 68.4959 270.66 64.9698C263.415 62.5444 264.278 48.9539 268.281 43.9289C272.282 38.904 283.389 41.2012 286.01 47.2612Z" fill="#E7BD9F"/>
<path d="M271.771 52.6047C271.924 52.1475 271.76 51.681 271.406 51.5626C271.052 51.4442 270.641 51.7188 270.488 52.176C270.335 52.6332 270.499 53.0997 270.853 53.2181C271.207 53.3365 271.618 53.0618 271.771 52.6047Z" fill="#34263B"/>
<path d="M278.474 54.8445C278.627 54.3873 278.464 53.9207 278.109 53.8024C277.755 53.684 277.344 53.9586 277.191 54.4158C277.039 54.8729 277.202 55.3395 277.556 55.4579C277.911 55.5762 278.322 55.3016 278.474 54.8445Z" fill="#34263B"/>
<path d="M281.808 56.8559C281.808 56.8559 284.18 53.7534 285.217 55.8021C286.254 57.8508 283.114 61.4778 281.631 60.9568C280.149 60.4368 280.624 58.0498 281.808 56.8559Z" fill="#E7BD9F"/>
<path d="M278.534 51.0325C278.534 51.0325 280.213 51.053 280.531 53.1461C280.717 54.3682 276.685 50.9198 278.534 51.0325Z" fill="#34263B"/>
<path d="M272.907 49C272.907 49 271.73 47.8018 269.999 49.0205C268.988 49.731 274.268 50.2562 272.907 49Z" fill="#34263B"/>
<path d="M266.574 51.9189C266.574 51.9189 266.564 48.0136 264.498 49.0171C262.432 50.0205 262.737 54.808 264.233 55.2905C265.728 55.773 266.795 53.586 266.574 51.9189Z" fill="#E7BD9F"/>
<path d="M271.899 40.249C271.899 40.249 269.896 48.5448 265.844 50.3604C265.844 50.3604 258.893 40.6982 271.899 40.249Z" fill="#323044"/>
<path d="M284.284 44.3875C284.284 44.3875 280.897 52.2213 283.044 56.1078C283.044 56.1078 294.406 52.5654 284.284 44.3875Z" fill="#323044"/>
<path d="M286.875 46.0878C286.875 46.0878 289.694 40.2516 285.602 36.8945C281.511 33.5375 272.52 38.3224 272.016 34.6348C271.698 32.3034 269.022 38.3105 272.883 39.6564C272.883 39.6564 269.015 36.2762 268.849 37.0201C267.242 44.2218 282.557 51.6696 286.875 46.0878Z" fill="#323044"/>
<path d="M276.177 43.7718C276.008 43.7154 275.835 43.6556 275.66 43.5924C272.605 42.4848 271.545 41.2653 271.193 40.4378C270.863 39.6615 271.094 39.1252 271.103 39.1021L271.369 39.2208L271.236 39.1619L271.37 39.22C271.362 39.2379 271.18 39.6777 271.466 40.3387C271.801 41.109 272.816 42.2525 275.76 43.32C278.144 44.186 279.994 44.3764 281.346 44.5156C283.095 44.6967 284.15 44.806 284.357 46.2783L284.07 46.3184C283.893 45.0716 283.086 44.987 281.317 44.8043C280.048 44.6728 278.344 44.4968 276.177 43.7718Z" fill="#493558"/>
<path d="M285.682 44.9016C285.682 44.8769 285.654 42.478 281.776 40.6658C280.15 39.9074 278.869 40.1782 277.837 40.3968C277.066 40.559 276.399 40.6991 275.848 40.3361C275.306 39.9783 274.937 39.1747 274.651 37.7323L274.935 37.6751C275.201 39.0176 275.542 39.7853 276.008 40.0928C276.456 40.3899 277.04 40.2678 277.777 40.1115C278.85 39.8852 280.188 39.6034 281.899 40.4019C285.96 42.2995 285.973 44.7983 285.972 44.9033L285.682 44.9016Z" fill="#493558"/>
<path d="M273.079 58.3248C272.66 58.1796 271.834 56.9225 271.868 55.8089L272.295 55.8226C272.269 56.6723 272.836 57.5707 273.117 57.844C273.385 57.3196 274.025 55.2128 274.543 53.2811L274.955 53.3912C274.12 56.5058 273.556 58.16 273.277 58.3077L273.079 58.3248Z" fill="#C87D79"/>
<path d="M272.724 60.6801C272.555 60.6801 272.388 60.6605 272.224 60.6195C270.387 60.1652 269.649 57.3316 269.619 57.212L270.032 57.107C270.039 57.1343 270.738 59.8133 272.328 60.2053C273.213 60.4239 274.236 59.8936 275.373 58.6305L275.69 58.9158C274.635 60.0883 273.64 60.6801 272.724 60.6801Z" fill="#C87D79"/>
<path d="M265.162 54.1462L264.753 54.0215C265.509 51.5389 264.584 50.9146 264.573 50.9087L264.794 50.5423C264.845 50.5722 266.028 51.3066 265.162 54.1462Z" fill="#C87D79"/>
<path d="M282.017 59.7903L281.615 59.6442C282.63 56.8525 284.017 56.9806 284.076 56.9857L284.028 57.4102L284.051 57.1975L284.031 57.4102C284.034 57.4179 282.908 57.3419 282.017 59.7903Z" fill="#C87D79"/>
<path d="M297.302 201.376C297.302 201.376 292.91 213.741 295.12 218.518C297.33 223.295 302.739 225.697 305.728 225.208C308.717 224.718 301.951 217.826 301.315 213.322C300.679 208.818 303.307 201.375 303.307 201.375L297.302 201.376Z" fill="#44324E"/>
<path d="M285.935 202.338C285.935 202.338 281.543 214.703 283.753 219.481C285.964 224.258 291.372 226.659 294.361 226.17C297.35 225.681 290.585 218.789 289.948 214.285C289.312 209.781 291.941 202.337 291.941 202.337L285.935 202.338Z" fill="#44324E"/>
<path d="M257.868 145.64C257.868 145.64 263.877 129.22 280.339 133.102C296.802 136.983 302.037 203.422 293.586 209.233C290.275 211.511 278.753 209.781 278.541 206.784C276.265 174.514 256.735 159.232 257.868 145.64Z" fill="#CA9661"/>
<path d="M272.998 133.86C272.998 133.86 299.845 130.023 311.848 141.939C323.852 153.855 315.422 205.226 305.159 209.754C301.287 211.462 294.498 208.777 294.498 208.777C291.963 205.337 264.926 144.853 272.998 133.86Z" fill="#CA9661"/>
<path d="M294.699 208.85L294.297 208.704C296.218 203.429 301.462 168.445 297.301 148.891C295.12 138.644 291.821 135.058 289.437 133.853C287.226 132.736 285.491 133.499 285.473 133.508L285.296 133.119C285.373 133.083 287.219 132.262 289.614 133.465C292.088 134.707 295.5 138.374 297.718 148.802C301.895 168.428 296.627 203.553 294.699 208.85Z" fill="#A36E4C"/>
<path d="M269.826 149.039C269.826 149.039 241.888 150.288 237.232 146.533C229.227 140.077 238.333 128.297 238.333 128.297L280.34 133.102C280.34 133.102 279.845 148.888 269.826 149.039Z" fill="#CA9661"/>
<path d="M263.025 72.8283C263.025 72.8283 263.115 80.3922 271.84 81.1872C279.458 81.8815 278.763 72.4081 284.052 74.5303C289.342 76.6525 293.109 75.2246 296.216 83.3598C299.323 91.495 294.746 135.497 292.225 135.245C289.705 134.992 263.643 131.86 254.377 137.942C246.659 143.007 232.209 147.327 233.42 140.862C234.631 134.397 237.715 86.2327 242.138 79.3204C244.959 74.9129 260.818 73.0324 263.025 72.8283Z" fill="#B94D59"/>
<path d="M198.474 92.2773C198.474 92.2773 247.304 85.8817 249.196 90.6769C251.089 95.4721 251.3 105.922 249.196 106.691C247.093 107.46 200.743 110.605 199.144 108.233C197.546 105.861 198.474 92.2773 198.474 92.2773Z" fill="#CA9661"/>
<path d="M197.139 77.9156L249.218 77.8481C250.699 82.8594 251.179 92.0288 248.944 92.1594C234.361 93.0126 217.082 93.8794 206.618 93.8597C200.839 93.8495 197.139 93.5685 197.119 92.8665C197.039 89.9629 197.139 77.9156 197.139 77.9156Z" fill="#C87D79"/>
<path d="M195.967 62.4556C195.967 62.4556 248.121 58.2309 249.609 63.167C251.096 68.1031 250.528 77.0974 248.368 77.6884C246.208 78.2794 210.935 77.831 197.12 78.1538C194.26 78.2213 195.967 62.4556 195.967 62.4556Z" fill="#493558"/>
<path d="M192.27 94.5831C192.27 94.5831 192.238 89.9536 192.65 88.8937C194.016 85.3795 196.815 81.9225 196.581 83.8569C196.347 85.7912 195.739 88.3404 195.739 88.3404C195.739 88.3404 197.649 84.3334 198.211 84.6716C198.774 85.0098 198.192 89.7691 198.192 89.7691C198.192 89.7691 199.047 85.4402 200.229 86.664C201.411 87.8877 198.434 90.963 198.207 97.023C198.04 101.462 193.188 100.138 192.27 94.5831Z" fill="#E7BD9F"/>
<path d="M259.59 150.244C258.961 150.244 258.471 150.149 258.164 149.919C257.943 149.753 257.823 149.527 257.805 149.246C257.648 146.808 266.893 143.913 267.947 143.591L268.071 144C265.295 144.848 258.116 147.438 258.23 149.219C258.24 149.373 258.301 149.487 258.421 149.577C259.239 150.19 262.239 149.522 265.138 148.876C267.425 148.367 269.787 147.84 271.431 147.84C271.454 147.84 271.478 147.84 271.501 147.84L271.498 148.267C271.475 148.267 271.452 148.267 271.43 148.267C269.834 148.267 267.495 148.788 265.231 149.293C262.991 149.791 260.959 150.243 259.59 150.244Z" fill="#A36E4C"/>
<path d="M280.916 208.235L280.493 208.18C280.963 204.574 281.377 193.937 275.091 173.102C271.22 160.269 266.393 149.37 263.355 146.595C262.799 146.088 262.327 145.873 261.958 145.956C256.747 147.124 242.69 144.13 242.093 144.002L242.182 143.585C242.327 143.616 256.743 146.687 261.864 145.54C262.379 145.425 262.978 145.673 263.642 146.28C266.731 149.101 271.608 160.079 275.5 172.978C277.602 179.946 282.337 197.328 280.916 208.235Z" fill="#A36E4C"/>
<path d="M288.482 87.3241C288.482 87.3241 297.544 94.6412 300.177 101.576C302.809 108.51 286.182 126.173 279.064 127.044C271.946 127.915 233.613 107.153 233.349 105.376C233.084 103.599 233.402 97.7378 235.78 97.9999C239.254 98.3834 264.451 107.148 273.415 108.473C278.039 109.157 282.766 85.6443 288.482 87.3241Z" fill="#E7BD9F"/>
<path d="M274.748 100.147C274.748 100.147 295.053 104.449 299.066 109.652C301.06 112.237 304.447 100.648 304.162 91.232C303.878 81.8158 286.822 73.6865 284.052 74.5303C281.283 75.3741 274.748 100.147 274.748 100.147Z" fill="#B94D59"/>
<path d="M280.1 96.5379L279.676 96.4824C279.732 96.0639 281.066 86.1968 283.897 83.2129C286.727 80.2308 291.961 79.1556 292.183 79.1112L292.267 79.5296C292.214 79.5399 286.943 80.6236 284.207 83.5059C281.471 86.3907 280.114 96.4371 280.1 96.5379Z" fill="#9B434C"/>
<path d="M237.394 138.842L236.994 138.695C237.099 138.404 239.801 131.542 257.127 130.632C266.182 130.156 273.591 130.589 279.543 130.935C284.959 131.251 288.871 131.478 291.298 130.845L291.406 131.257C288.914 131.909 284.973 131.679 279.518 131.361C273.577 131.016 266.183 130.585 257.15 131.058C240.147 131.951 237.421 138.773 237.394 138.842Z" fill="#9B434C"/>
<path d="M272.618 86.0328C267.766 86.0328 260.326 76.0359 260.01 75.6089L260.353 75.3553C260.429 75.4586 267.98 85.6058 272.616 85.6058C272.635 85.6058 272.655 85.6058 272.674 85.6058C275.729 85.5495 279.155 81.0241 281.422 78.0292C282.922 76.0487 283.615 75.1759 284.092 75.2724L284.011 75.6918C283.72 75.7012 282.68 77.0744 281.763 78.2862C279.445 81.3469 275.944 85.9722 272.681 86.032C272.661 86.0328 272.639 86.0328 272.618 86.0328Z" fill="#9B434C"/>
<path d="M300.336 106.19C300.208 106.102 287.292 97.4303 278.586 99.2083L278.5 98.7899C287.388 96.9845 300.446 105.747 300.576 105.836L300.336 106.19Z" fill="#9B434C"/>
<path d="M267.505 62.6853C267.505 62.6853 269.867 65.7905 272.679 65.7401C275.491 65.6897 278.142 63.1525 278.142 63.1525C278.142 63.1525 277.804 65.0065 277.791 65.7597C277.777 66.513 274.063 69.4362 269.998 69.4285C268.309 69.4251 267.326 66.337 267.406 65.9066C267.487 65.4762 267.817 63.7545 267.505 62.6853Z" fill="#C87D79"/>
<path d="M194.548 66.0569C194.548 66.0569 241.235 64.2464 243.036 66.0569C244.837 67.8674 244.837 73.8138 243.036 74.4697C241.234 75.1255 195.101 75.404 194.548 75.4782C193.995 75.5534 193.478 66.0971 194.548 66.0569Z" fill="#FEFADA"/>
<path d="M202.822 81.3973C202.822 81.3973 248.284 79.7747 250.038 81.3973C251.791 83.0199 251.792 88.3514 250.038 88.939C248.283 89.5274 203.362 89.7768 202.822 89.8434C202.283 89.91 201.781 81.4332 202.822 81.3973Z" fill="#FEFADA"/>
<path d="M205.731 109.103L205.197 93.8657C205.197 93.8657 202.687 93.3772 202.122 93.8657C201.558 94.3542 201.563 108.88 202.122 108.927C202.682 108.974 204.17 109.104 205.731 109.103Z" fill="#493558"/>
<path d="M212.073 109.103L211.538 93.8657C211.538 93.8657 209.028 93.3772 208.464 93.8657C207.899 94.3542 207.905 108.88 208.464 108.927C209.023 108.974 210.513 109.104 212.073 109.103Z" fill="#493558"/>
<path d="M239.801 107.395L239.462 92.1517C239.462 92.1517 236.958 91.6308 236.388 92.1125C235.818 92.5941 235.637 107.118 236.196 107.173C236.754 107.227 238.241 107.375 239.801 107.395Z" fill="#493558"/>
<path d="M246.144 107.476L245.804 92.2329C245.804 92.2329 243.3 91.7119 242.731 92.1936C242.161 92.6753 241.98 107.199 242.539 107.254C243.097 107.309 244.583 107.456 246.144 107.476Z" fill="#493558"/>
<path d="M247.638 101.376C247.638 101.376 236.441 97.637 232.726 96.9939C229.011 96.3509 224.205 96.3022 225.968 97.1331C227.73 97.9641 230.213 98.8044 230.213 98.8044C230.213 98.8044 225.804 98.2903 225.792 98.947C225.779 99.6029 230.119 101.641 230.119 101.641C230.119 101.641 225.092 99.7114 225.5 101.363C225.909 103.015 235.394 106.893 238.7 109.103C242.393 111.571 251.913 104.021 247.638 101.376Z" fill="#E7BD9F"/>
<path d="M289.082 216.896C287.377 216.896 285.455 216.416 285.332 216.386L285.438 215.972C286.659 216.282 290.047 216.891 291.046 216.018L291.326 216.34C290.848 216.757 289.995 216.896 289.082 216.896Z" fill="#FEFADA"/>
<path d="M289.888 219.14C288.636 219.14 287.42 218.747 287.344 218.721L287.477 218.316C287.505 218.325 290.182 219.189 291.511 218.338L291.742 218.698C291.222 219.031 290.55 219.14 289.888 219.14Z" fill="#FEFADA"/>
<path d="M301.068 216.028C299.364 216.028 297.442 215.549 297.319 215.518L297.424 215.105C298.645 215.414 302.034 216.024 303.032 215.151L303.313 215.473C302.834 215.89 301.982 216.028 301.068 216.028Z" fill="#FEFADA"/>
<path d="M301.874 218.272C300.622 218.272 299.406 217.879 299.33 217.854L299.464 217.448C299.491 217.457 302.168 218.323 303.498 217.47L303.728 217.831C303.208 218.163 302.537 218.272 301.874 218.272Z" fill="#FEFADA"/>
<path d="M308.583 205.87C308.21 205.856 299.423 205.492 296.498 203.706L296.72 203.341C299.552 205.07 308.511 205.44 308.601 205.443L308.583 205.87Z" fill="#A36E4C"/>
<path d="M289.702 203.577C285.481 203.577 279.831 203.46 278.206 203.425L278.216 202.998C284.396 203.132 293.808 203.249 294.404 203.02L294.6 203.398C294.358 203.533 292.299 203.577 289.702 203.577Z" fill="#A36E4C"/>
<path d="M193.864 68.9639L193.844 68.5378C193.969 68.5318 206.298 67.9682 211.93 67.9682C215.944 67.9682 229.587 67.8272 237.738 67.7427C241.121 67.7077 243.52 67.6829 243.813 67.6829V68.1099C243.519 68.1099 241.123 68.1347 237.742 68.1697C229.59 68.2542 215.947 68.3952 211.93 68.3952C206.308 68.3952 193.988 68.9588 193.864 68.9639Z" fill="#D3D0B1"/>
<path d="M211.258 73.3313C204.258 73.3313 194.548 73.0956 194.418 73.0922L194.429 72.6652C194.603 72.6694 211.842 73.0888 216.901 72.8078C221.963 72.5268 243.295 70.6916 243.51 70.6728L243.547 71.0981C243.332 71.1169 221.993 72.9521 216.924 73.2331C215.65 73.3048 213.606 73.3313 211.258 73.3313Z" fill="#D3D0B1"/>
<path d="M214.853 85.1566C208.986 85.1566 202.203 84.909 202.102 84.9055L202.118 84.4785C202.272 84.4845 217.526 85.0413 222.009 84.4802C226.524 83.9158 250.684 83.6271 250.927 83.6245L250.932 84.0515C250.689 84.0541 226.553 84.3419 222.062 84.9038C220.545 85.0943 217.815 85.1566 214.853 85.1566Z" fill="#D3D0B1"/>
<path d="M202.822 88.0372L202.82 87.6102C203.056 87.6093 226.469 87.4599 230.109 86.7596C233.788 86.0525 250.372 86.318 251.075 86.3292L251.068 86.7562C250.896 86.7536 233.827 86.4795 230.189 87.1797C226.512 87.8868 203.788 88.0312 202.822 88.0372Z" fill="#D3D0B1"/>
<path d="M232.853 67.7547C232.853 67.7547 233.138 81.2761 233.28 82.4153C233.423 83.5537 236.127 77.4339 236.127 77.4339L239.258 82.7005L239.828 67.4711C239.828 67.4711 233.28 67.1851 232.853 67.7547Z" fill="#B94D59"/>
<path d="M214.326 212.026C214.326 212.026 204.547 207.874 200.558 221.679C196.569 235.484 196.737 241.159 203.025 243.134C209.313 245.109 210.495 239.96 215.409 241.893C220.323 243.826 228.992 244.684 230.399 238.744C231.806 232.805 227.565 205.559 214.326 212.026Z" fill="#B94D59"/>
<path d="M221.068 220.352C221.068 220.352 218.86 241.237 222.4 244.354C225.939 247.471 240.266 242.737 244.076 248.743C247.885 254.748 246.747 299.343 246.747 299.343H186.328C186.328 299.343 187.349 247.971 190.486 245.725C193.622 243.479 208.33 248.884 209.098 240.073C209.465 235.855 209.863 223.926 209.863 223.926L221.068 220.352Z" fill="#E7BD9F"/>
<path d="M209.42 236.034C209.42 236.034 215.787 241.079 220.393 233.314C220.393 233.314 220.289 238.012 220.44 238.759C220.592 239.506 215.918 243.559 215.191 243.559C213.259 243.559 209.262 238.971 209.262 238.971L209.42 236.034Z" fill="#C87D79"/>
<path d="M203.955 245.241C203.955 245.241 207.607 257.601 214.187 258.561C220.768 259.522 222.382 244.812 224.265 245.241C226.146 245.669 236.35 240.587 240.919 247.843C245.488 255.097 245.089 311.906 245.089 311.906H186.328C186.328 311.906 187.46 258.411 188.973 252.182C190.486 245.952 200.521 244.41 203.955 245.241Z" fill="#7F6873"/>
<path d="M223.523 218.269C223.523 218.269 224.494 240.021 213.406 239.408C205.778 238.986 203.014 225.652 205.544 219.746C208.074 213.842 219.392 213.118 223.523 218.269Z" fill="#E7BD9F"/>
<path d="M210.808 228.883C210.835 228.402 210.554 227.995 210.181 227.975C209.808 227.954 209.484 228.328 209.458 228.809C209.431 229.29 209.712 229.697 210.085 229.717C210.458 229.738 210.782 229.364 210.808 228.883Z" fill="#44324E"/>
<path d="M218.26 228.883C218.287 228.402 218.006 227.995 217.633 227.974C217.26 227.954 216.936 228.328 216.91 228.809C216.883 229.29 217.164 229.697 217.537 229.717C217.91 229.738 218.234 229.364 218.26 228.883Z" fill="#44324E"/>
<path d="M222.01 228.634C222.01 228.634 223.476 225.014 225.019 226.716C226.561 228.418 224.493 232.746 222.925 232.636C221.357 232.525 221.183 230.098 222.01 228.634Z" fill="#E7BD9F"/>
<path d="M217.311 223.884C217.311 223.884 218.937 223.459 219.797 225.394C220.3 226.523 215.498 224.264 217.311 223.884Z" fill="#B94D59"/>
<path d="M211.14 224.121C211.14 224.121 209.689 223.277 208.341 224.91C207.554 225.864 212.785 224.973 211.14 224.121Z" fill="#B94D59"/>
<path d="M206.013 227.903C206.013 227.903 204.969 224.139 203.243 225.653C201.516 227.167 203.077 231.704 204.647 231.774C206.217 231.844 206.666 229.453 206.013 227.903Z" fill="#E7BD9F"/>
<path d="M214.38 232.613L214.295 232.609C213.89 232.593 212.816 232.553 212.547 231.441L212.962 231.341C213.126 232.023 213.702 232.153 214.26 232.18C214.336 231.601 214.182 229.102 213.975 226.829L214.4 226.791C214.729 230.383 214.786 232.317 214.569 232.538L214.38 232.613Z" fill="#C87D79"/>
<path d="M213.711 234.799C211.844 234.799 210.41 232.309 210.349 232.202L210.721 231.992C210.735 232.015 212.093 234.372 213.711 234.372C213.725 234.372 213.739 234.372 213.755 234.371C214.665 234.348 215.514 233.566 216.275 232.045L216.656 232.238C215.819 233.909 214.845 234.771 213.764 234.798C213.747 234.799 213.728 234.799 213.711 234.799Z" fill="#C87D79"/>
<path d="M205.24 230.425L204.813 230.413C204.886 227.818 203.828 227.461 203.816 227.458L203.931 227.047C203.988 227.062 205.324 227.457 205.24 230.425Z" fill="#C87D79"/>
<path d="M222.988 231.408L222.563 231.373C222.803 228.414 224.174 228.167 224.232 228.158L224.301 228.579C224.29 228.582 223.199 228.821 222.988 231.408Z" fill="#C87D79"/>
<path d="M203.12 224.613C203.12 224.613 204.223 226.045 206.856 224.775C213.5 221.571 214.862 214.312 214.862 214.312C214.862 214.312 215.506 219.329 216.465 221.037C217.424 222.745 222.097 225.998 223.177 225.706C224.256 225.414 227.116 219.172 221.523 214.82C215.93 210.469 214.509 212.163 211.216 213.504C207.923 214.846 200.451 220.075 203.12 224.613Z" fill="#B94D59"/>
<path d="M215.291 214.211C218.732 214.211 221.522 211.421 221.522 207.979C221.522 204.537 218.732 201.747 215.291 201.747C211.849 201.747 209.059 204.537 209.059 207.979C209.059 211.421 211.849 214.211 215.291 214.211Z" fill="#B94D59"/>
<path d="M214.187 258.74C214.187 258.74 208.65 243.79 205.03 245.715C201.41 247.639 198.465 258.524 201.434 260.448C204.403 262.372 214.187 258.74 214.187 258.74Z" fill="#FEFADA"/>
<path d="M215.29 258.74C215.29 258.74 220.827 243.79 224.447 245.715C228.068 247.639 231.012 258.524 228.044 260.448C225.074 262.372 215.29 258.74 215.29 258.74Z" fill="#FEFADA"/>
<path d="M228.044 244.498C228.044 244.498 226.45 293.904 229.262 299.343C232.075 304.783 245.394 302.446 246.907 298.166C248.419 293.886 246.121 254.713 245.099 251.728C244.076 248.743 240.606 241.916 228.044 244.498Z" fill="#CA9661"/>
<path d="M204.128 244.498C204.128 244.498 205.722 293.904 202.91 299.343C200.097 304.783 186.778 302.446 185.265 298.166C183.753 293.886 186.051 254.713 187.073 251.728C188.096 248.743 191.566 241.916 204.128 244.498Z" fill="#CA9661"/>
<path d="M155.457 318.355C155.457 318.355 148.139 285.371 168.917 284.764C189.695 284.157 235.003 321.758 220.445 335.284C205.886 348.809 156.473 344.112 155.457 318.355Z" fill="#6A8185"/>
<path d="M278.344 318.355C278.344 318.355 282.437 285.294 261.66 284.688C240.882 284.081 190.472 321.759 205.031 335.285C219.59 348.81 277.328 344.112 278.344 318.355Z" fill="#6A8185"/>
<path d="M69.209 341.528H219.449C219.449 341.528 205.064 290.758 161.111 291.106C117.159 291.453 98.7779 332.243 66.0125 309.782C66.0125 309.782 57.2223 330.868 69.209 341.528Z" fill="#FEFADA"/>
<path d="M357.791 341.528H207.551C207.551 341.528 221.936 290.758 265.889 291.106C309.841 291.453 328.222 332.243 360.988 309.782C360.988 309.782 369.778 330.868 357.791 341.528Z" fill="#FEFADA"/>
<path d="M200.664 244.98C200.664 244.98 200.653 239.341 199.529 235.742C198.404 232.144 197.727 227.385 198.782 229.024C199.836 230.663 200.995 233.014 200.995 233.014C200.995 233.014 199.909 228.711 200.557 228.612C201.206 228.512 203.794 232.549 203.794 232.549C203.794 232.549 201.69 228.67 203.381 228.859C205.072 229.048 213.405 239.409 208.707 248.916C206.739 252.898 203.845 248.874 200.664 244.98Z" fill="#DC9A8E"/>
<path d="M200.216 242.326C200.216 242.326 208.32 243.247 210.724 247.606C213.129 251.964 191.845 293.592 182.11 293.837C172.376 294.081 167.322 286.396 165.792 284.688C164.262 282.98 191.761 238.822 200.216 242.326Z" fill="#CA9661"/>
<path d="M227.236 244.98C227.236 244.98 227.246 239.341 228.371 235.742C229.495 232.144 230.172 227.385 229.117 229.024C228.063 230.663 226.904 233.014 226.904 233.014C226.904 233.014 227.991 228.711 227.343 228.612C226.693 228.512 224.104 232.549 224.104 232.549C224.104 232.549 226.208 228.67 224.517 228.859C222.827 229.048 214.567 241.205 219.192 248.916C221.477 252.724 224.055 248.874 227.236 244.98Z" fill="#DC9A8E"/>
<path d="M227.236 242.326C227.236 242.326 219.132 243.247 216.727 247.606C214.322 251.964 235.607 293.592 245.341 293.837C255.076 294.081 260.129 286.396 261.66 284.688C263.189 282.98 235.69 238.822 227.236 242.326Z" fill="#CA9661"/>
<path d="M197.768 244.498C197.768 244.498 193.734 279.325 190.922 284.765C188.11 290.205 167.305 288.967 165.792 284.688C164.28 280.408 179.689 254.713 180.712 251.728C181.735 248.743 185.205 241.916 197.768 244.498Z" fill="#CA9661"/>
<path d="M233.044 244.498C233.044 244.498 237.077 279.325 239.889 284.765C242.702 290.205 260.147 288.967 261.66 284.688C263.172 280.408 248.44 254.954 247.417 251.969C246.395 248.985 244.325 242.128 233.044 244.498Z" fill="#CA9661"/>
<path d="M256.084 275.541C249.408 259.475 236.776 245.551 232.998 244.707L233.091 244.29C237.439 245.263 250.169 260.195 256.478 275.378L256.084 275.541Z" fill="#A36E4C"/>
<path d="M236.041 286.987C235.97 286.867 228.934 275.027 227.436 273.363L227.752 273.078C229.279 274.773 236.118 286.28 236.409 286.768L236.041 286.987Z" fill="#A36E4C"/>
<path d="M199.628 233.542L199.479 233.141C199.634 233.083 203.302 231.735 204.727 232.447L204.535 232.829C203.489 232.304 200.639 233.164 199.628 233.542Z" fill="#C87D79"/>
<path d="M209.394 254.269C207.158 250.755 193.356 244.999 193.217 244.94L193.38 244.546C193.953 244.784 207.446 250.412 209.754 254.04L209.394 254.269Z" fill="#A36E4C"/>
<path d="M170.569 275.174L170.177 275.006C173.698 266.772 189.562 248.839 189.722 248.658L190.041 248.942C189.883 249.121 174.065 267.003 170.569 275.174Z" fill="#A36E4C"/>
<path d="M190.041 288.528L189.723 288.245C189.842 288.111 201.684 274.77 203.668 266.109L204.084 266.204C202.076 274.973 190.162 288.394 190.041 288.528Z" fill="#A36E4C"/>
<path d="M360.065 341.528H69.209V356.759H360.065V341.528Z" fill="#C87D79"/>
<path d="M179.417 292.567C175.153 292.567 169.997 291.028 167.167 284.555C167.094 284.387 167.169 284.274 167.205 284.233C167.419 283.993 167.96 284.139 170.22 284.805C174.187 285.974 181.57 288.151 189.883 288.173L189.882 288.6C181.507 288.578 174.086 286.389 170.1 285.214C169.003 284.89 168.034 284.605 167.634 284.555C172.888 296.23 186.114 290.961 186.247 290.907L186.409 291.302C186.344 291.329 183.239 292.567 179.417 292.567Z" fill="#A36E4C"/>
<path d="M217.91 253.096L217.695 252.727C218.153 252.458 228.989 246.15 233.066 246.543L233.022 246.968C229.1 246.578 218.021 253.031 217.91 253.096Z" fill="#A36E4C"/>
<path d="M246.044 289.702C242.109 289.702 239.117 288.582 239.053 288.557L239.206 288.158C239.343 288.211 252.898 293.272 260.142 281.393L260.508 281.615C256.506 288.178 250.634 289.702 246.044 289.702Z" fill="#A36E4C"/>
<path d="M210.044 231.604C208.359 231.604 206.988 230.233 206.988 228.548C206.988 226.863 208.359 225.493 210.044 225.493C211.729 225.493 213.099 226.863 213.099 228.548C213.099 230.233 211.728 231.604 210.044 231.604ZM210.044 225.92C208.595 225.92 207.415 227.099 207.415 228.548C207.415 229.998 208.595 231.177 210.044 231.177C211.493 231.177 212.672 229.998 212.672 228.548C212.672 227.099 211.493 225.92 210.044 225.92Z" fill="#FEFADA"/>
<path d="M217.802 231.604C216.117 231.604 214.747 230.233 214.747 228.548C214.747 226.863 216.117 225.493 217.802 225.493C219.487 225.493 220.857 226.863 220.857 228.548C220.857 230.233 219.487 231.604 217.802 231.604ZM217.802 225.92C216.353 225.92 215.174 227.099 215.174 228.548C215.174 229.998 216.353 231.177 217.802 231.177C219.251 231.177 220.43 229.998 220.43 228.548C220.43 227.099 219.251 225.92 217.802 225.92Z" fill="#FEFADA"/>
<path d="M215.29 227.991H212.754V228.418H215.29V227.991Z" fill="#FEFADA"/>
<path d="M204.762 225.305L204.527 225.663L207.353 227.526L207.589 227.168L204.762 225.305Z" fill="#FEFADA"/>
<path d="M220.72 227.559L220.568 227.161L223.444 226.061L223.596 226.46L220.72 227.559Z" fill="#FEFADA"/>
<path d="M210.61 341.618C199.095 316.781 188.465 305.156 175.067 302.745C162.199 300.428 147.359 306.583 126.82 315.097C121.882 317.143 116.776 319.26 111.251 321.446C89.8929 329.896 75.5269 331.256 68.5532 325.49C63.155 321.025 64.4659 313.748 64.4796 313.675L64.8989 313.755C64.8852 313.825 63.6239 320.864 68.829 325.164C73.5354 329.052 84.6878 331.494 111.093 321.049C116.615 318.865 121.72 316.749 126.656 314.702C147.264 306.161 162.153 299.99 175.143 302.325C188.693 304.763 199.416 316.46 210.996 341.438L210.61 341.618Z" fill="#D3D0B1"/>
<path d="M203.705 342.156C203.536 341.931 186.469 319.721 159.013 321.999C149.769 322.764 137.812 326.134 125.152 329.702C99.4158 336.956 72.8043 344.455 63.424 331.952L63.7656 331.695C72.9692 343.966 99.438 336.507 125.036 329.291C137.716 325.717 149.693 322.342 158.978 321.575C186.678 319.278 203.876 341.673 204.046 341.9L203.705 342.156Z" fill="#D3D0B1"/>
<path d="M123.201 341.728L123.054 341.328C136.878 336.224 156.755 330.919 172.923 334.62C182.633 336.844 186.339 341.206 186.492 341.392L186.163 341.664C186.127 341.619 182.369 337.21 172.78 335.026C163.917 333.008 148.119 332.531 123.201 341.728Z" fill="#D3D0B1"/>
<path d="M216.659 341.618L216.272 341.438C227.853 316.46 238.575 304.763 252.126 302.325C265.111 299.986 280.006 306.16 300.612 314.702C305.548 316.749 310.654 318.865 316.175 321.049C330.749 326.816 349.912 332.209 358.44 325.164C363.644 320.864 362.382 313.825 362.369 313.755L362.789 313.675C362.803 313.749 364.114 321.025 358.715 325.49C351.742 331.257 337.375 329.895 316.018 321.446C310.492 319.26 305.387 317.145 300.449 315.097C279.909 306.583 265.066 300.431 252.202 302.745C238.804 305.156 228.174 316.781 216.659 341.618Z" fill="#D3D0B1"/>
<path d="M223.563 342.156L223.223 341.899C223.393 341.673 240.592 319.28 268.29 321.574C277.576 322.341 289.552 325.717 302.232 329.291C327.83 336.505 354.3 343.966 363.502 331.694L363.843 331.952C354.463 344.456 327.851 336.955 302.116 329.701C289.456 326.133 277.5 322.763 268.255 321.998C240.794 319.732 223.732 341.932 223.563 342.156Z" fill="#D3D0B1"/>
<path d="M304.066 341.728C290.295 336.645 270.507 331.357 254.441 335.037C244.871 337.228 241.141 341.62 241.105 341.664L240.776 341.392C240.929 341.207 244.636 336.845 254.346 334.621C263.269 332.579 279.167 332.081 304.215 341.328L304.066 341.728Z" fill="#D3D0B1"/>
<path d="M206.087 225.308L206.016 224.888C206.393 224.823 215.252 223.201 214.641 213.586L215.066 213.56C215.399 218.785 212.938 221.704 210.814 223.232C208.52 224.882 206.186 225.292 206.087 225.308Z" fill="#B94D59"/>
<path d="M210.845 212.228C209.43 211.759 208.601 210.994 208.38 209.956C207.794 207.198 211.772 203.535 211.942 203.38L212.229 203.695C212.19 203.731 208.262 207.348 208.797 209.867C208.984 210.746 209.718 211.403 210.98 211.823L210.845 212.228Z" fill="#B94D59"/>
<path d="M218.961 213.252L218.861 212.837C218.884 212.832 221.078 212.284 221.708 210.578C222.153 209.377 221.737 207.876 220.47 206.117L220.817 205.868C222.172 207.75 222.607 209.385 222.107 210.729C221.395 212.648 219.06 213.229 218.961 213.252Z" fill="#B94D59"/>
<path d="M198.779 239.54C198.751 239.498 196.033 235.374 196.906 230.382C197.356 227.807 198.434 226.573 199.3 225.582C200.237 224.51 200.913 223.735 200.352 221.735C199.675 219.326 201.582 215.601 203.735 213.532C205.338 211.989 206.969 211.382 208.326 211.822L208.194 212.228C206.995 211.842 205.517 212.412 204.031 213.84C201.664 216.115 200.198 219.605 200.763 221.62C201.387 223.843 200.608 224.734 199.622 225.863C198.791 226.814 197.756 227.998 197.326 230.455C196.484 235.274 199.107 239.263 199.133 239.301L198.779 239.54Z" fill="#B94D59"/>
<path d="M207.513 222.747L207.417 222.332C211.247 221.444 212.778 218.005 212.925 215.329C212.992 214.116 212.725 213.508 212.567 213.452C212.509 213.434 212.399 213.503 212.26 213.697C210.662 215.935 203.559 221.916 203.257 222.17L202.983 221.843C203.056 221.781 210.345 215.643 211.913 213.449C212.233 213.002 212.52 212.984 212.709 213.05C213.266 213.246 213.406 214.368 213.352 215.353C213.196 218.176 211.574 221.806 207.513 222.747Z" fill="#934048"/>
<path d="M214.815 210.526C213.134 208.965 213.786 206.068 213.815 205.945L214.23 206.041C214.224 206.069 213.607 208.822 215.105 210.213L214.815 210.526Z" fill="#934048"/>
<path d="M215.972 210.6C215.803 210.6 215.693 210.583 215.679 210.581L215.378 210.532L215.526 210.266C216.878 207.823 217.362 204.92 217.366 204.891L217.788 204.959C217.769 205.076 217.327 207.736 216.062 210.169C216.375 210.155 216.866 210.069 217.274 209.708C217.82 209.225 218.077 208.391 218.041 207.228L218.468 207.215C218.509 208.514 218.2 209.461 217.551 210.032C216.999 210.52 216.344 210.6 215.972 210.6Z" fill="#934048"/>
<path d="M222.599 223.087C222.405 222.803 217.843 216.103 216.79 213.657L217.182 213.489C218.219 215.897 222.904 222.778 222.951 222.847L222.599 223.087Z" fill="#934048"/>
<path d="M225.857 227.132C225.544 220.753 221.397 215.466 221.355 215.413L221.689 215.147C221.733 215.201 225.963 220.597 226.284 227.109L225.857 227.132Z" fill="#934048"/>
<path d="M229.511 227.361C229.468 222.207 228.018 219.124 226.81 217.445C225.504 215.632 224.19 215.021 224.178 215.015L224.353 214.626C224.577 214.726 229.854 217.213 229.938 227.358L229.511 227.361Z" fill="#B94D59"/>
<path d="M227.42 233.467C226.459 232.133 223.003 232.836 222.968 232.844L222.881 232.426C223.034 232.396 226.644 231.66 227.767 233.216L227.42 233.467Z" fill="#C87D79"/>
</g>
<defs>
<clipPath id="clip0_1_24">
<rect width="427" height="427" fill="white"/>
</clipPath>
</defs>
</svg>
